<?xml version="1.0" encoding="UTF-8"?>
<svg id="_圖層_1" data-name="圖層_1" xmlns="http://www.w3.org/2000/svg" version="1.1" viewBox="0 0 87 40">
  <!-- Generator: Adobe Illustrator 29.3.1, SVG Export Plug-In . SVG Version: 2.1.0 Build 151)  -->
  <defs>
    <style>
      .st0, .st1 {
        fill: #231815;
      }

      .st1 {
        stroke: #231815;
        stroke-linecap: round;
        stroke-linejoin: round;
        stroke-width: .3px;
      }
    </style>
  </defs>
  <g>
    <path class="st0" d="M34.02,3.68c-.36-.55-1.01-.52-1.32.05-.07.14-.24,1.17-.37,2.31-.41,3.51-.99,6.72-1.68,9.29-1.61,6.04-3.6,10.83-5.16,12.39-.63.63-.86.59-1.14-.2-.19-.54-.22-1.01-.22-2.75,0-1.85.08-2.54.58-5.8.79-5.15.87-5.92.88-8.02,0-.13,0-.22,0-.33.02-.59-.02-.89-.13-1.05-.36-.55-1.01-.52-1.32.05-.07.14-.24,1.17-.37,2.31-.41,3.51-.99,6.72-1.68,9.29-1.61,6.04-3.6,10.83-5.16,12.39-.63.63-.86.59-1.14-.2-.19-.54-.22-1.01-.22-2.75,0-1.85.08-2.54.58-5.8.79-5.15.87-5.92.88-8.02,0-2.09-.15-2.81-.79-3.79-.81-1.23-2.44-1.55-3.98-.79-2.84,1.39-5.24,6.33-3.86,7.94.31.36.91.44,1.24.17.22-.18.26-.94.05-1.06-.29-.18-.05-1.38.5-2.46.94-1.85,2.52-3.27,3.65-3.27,1.18,0,1.48.74,1.46,3.58-.01,2.08-.05,2.39-1.04,8.89-.52,3.38-.57,6.37-.15,7.72.3.97.62,1.44,1.19,1.79.49.3,1.31.3,1.9,0,1.63-.83,3.5-4.25,5.21-9.45.04.73.12,1.34.26,1.77.3.97.62,1.44,1.19,1.79.49.3,1.31.3,1.9,0,1.78-.91,3.85-4.89,5.69-10.93,1.14-3.75,1.85-6.98,2.35-10.76.4-3.03.45-3.93.22-4.29Z"/>
    <path class="st0" d="M29.49,27.78c-.72.22-1.28.62-1.7,1.1,0,0-.14.14-.29.39-.63,1.08-.61,2.46.33,3.65,1.96,2.48,7.3,3.78,8.58,2.09.29-.38.24-.98-.1-1.25-.22-.18-.97-.05-1.05.17-.11.32-1.34.34-2.51.03-2-.52-3.73-1.77-3.97-2.88,0-.04-.03-.2-.01-.3s.07-.61.46-.97c.83-.77,2.96-.81,4.91-.09,1.13.41,2.13,1.13,2.04,1.46-.06.23.48.76.76.74.43-.02.81-.49.79-.97-.08-2.12-5.21-4.1-8.24-3.18Z"/>
  </g>
  <g>
    <path class="st1" d="M46.98,23.91h.17l.22,2.4c.05.43.1.89.13,1.33h.02c.22-.43.46-.91.68-1.33l1.26-2.4h.18l-2.09,3.96h-.2l-.37-3.96Z"/>
    <path class="st0" d="M50.21,23.91h.18l-.79,3.96h-.18l.79-3.96Z"/>
    <path class="st0" d="M50.83,26.4c0-1.15.73-2.55,1.99-2.55.44,0,.73.26.91.55l-.14.1c-.16-.28-.41-.49-.78-.49-1.15,0-1.8,1.34-1.8,2.36,0,.8.35,1.43,1.15,1.43.38,0,.67-.14.97-.4l.11.12c-.34.28-.66.43-1.09.43-.89,0-1.32-.67-1.32-1.55Z"/>
    <path class="st0" d="M54.73,23.91h.18l-.44,2.22h.01l2.38-2.22h.23l-1.51,1.44.91,2.52h-.19l-.86-2.4-1.01.94-.3,1.46h-.18l.79-3.96Z"/>
    <path class="st0" d="M57.94,26.23l-.65-2.32h.18l.35,1.29c.08.29.15.56.23.85h.02c.2-.28.39-.57.59-.85l.91-1.29h.19l-1.64,2.32-.33,1.64h-.18l.33-1.64Z"/>
    <path class="st1" d="M60.78,26.4c0-1.15.73-2.55,1.99-2.55.44,0,.73.26.91.55l-.14.1c-.16-.28-.41-.49-.78-.49-1.15,0-1.8,1.34-1.8,2.36,0,.8.35,1.43,1.15,1.43.38,0,.67-.14.97-.4l.11.12c-.34.28-.66.43-1.09.43-.89,0-1.32-.67-1.32-1.55Z"/>
    <path class="st0" d="M64.68,23.91h.18l-.36,1.78h2.13l.36-1.78h.18l-.79,3.96h-.18l.41-2.03h-2.13l-.41,2.03h-.18l.79-3.96Z"/>
    <path class="st0" d="M68.27,23.91h2.05l-.04.16h-1.87l-.32,1.62h1.58l-.04.16h-1.57l-.38,1.87h1.93l-.04.16h-2.1l.79-3.96Z"/>
    <path class="st0" d="M71.17,23.91h.2l1.1,2.92.29.79h.02c.06-.37.12-.76.19-1.13l.52-2.58h.18l-.79,3.96h-.19l-1.09-2.9-.3-.83h-.02c-.06.38-.13.75-.2,1.12l-.52,2.61h-.18l.79-3.96Z"/>
    <path class="st0" d="M74.43,24.76c.31-.19.48-.46.48-.72l-.04-.3.16.24c-.05.06-.11.07-.14.07-.11,0-.19-.06-.19-.18s.08-.22.19-.22c.12,0,.22.1.22.26,0,.42-.24.75-.6.96l-.07-.12Z"/>
    <path class="st0" d="M75.06,27.28l.14-.1c.25.38.61.6,1.13.6.6,0,1.07-.38,1.07-.97,0-.36-.2-.6-.52-.78l-.53-.31c-.32-.19-.62-.47-.62-.89,0-.53.44-1,1.1-1,.48,0,.85.24,1.06.53l-.13.11c-.2-.26-.53-.48-.96-.48-.54,0-.89.42-.89.82s.25.6.53.75l.52.3c.37.22.62.49.62.92,0,.7-.55,1.15-1.27,1.15-.56,0-.98-.24-1.25-.66Z"/>
    <path class="st1" d="M47.13,31.11h.18v2.4c-.01.43,0,.86-.01,1.3h.02c.2-.43.41-.86.6-1.3l1.13-2.4h.2l.08,2.4c.02.43.04.86.05,1.3h.02c.18-.43.36-.86.55-1.3l1.01-2.4h.19l-1.7,3.96h-.23l-.1-2.83c0-.32-.01-.61-.01-.94h-.02c-.12.32-.26.61-.41.94l-1.32,2.83h-.23v-3.96Z"/>
    <path class="st0" d="M52.69,31.11h.18l.5,3.96h-.18l-.29-2.38c-.05-.44-.11-.9-.16-1.38h-.02c-.24.49-.48.91-.73,1.38l-1.3,2.38h-.2l2.19-3.96ZM51.45,33.49h1.68l-.04.16h-1.69l.05-.16Z"/>
    <path class="st0" d="M54.69,31.11h.18l-.75,3.8h1.8l-.04.16h-1.98l.79-3.96Z"/>
    <path class="st0" d="M57.28,31.11h.18l-.75,3.8h1.8l-.04.16h-1.98l.79-3.96Z"/>
    <path class="st0" d="M59.87,31.11h1.01c.72,0,1.15.28,1.15.9,0,.86-.64,1.3-1.66,1.3h-.77l-.35,1.76h-.18l.79-3.96ZM60.34,33.15c1,0,1.51-.38,1.51-1.13,0-.54-.37-.76-1.08-.76h-.75l-.37,1.88h.7Z"/>
    <path class="st0" d="M63.66,31.11h.18l.5,3.96h-.18l-.29-2.38c-.05-.44-.11-.9-.16-1.38h-.02c-.24.49-.48.91-.73,1.38l-1.3,2.38h-.2l2.19-3.96ZM62.41,33.49h1.68l-.04.16h-1.69l.05-.16Z"/>
    <path class="st0" d="M65.65,31.11h1.01c.72,0,1.15.28,1.15.9,0,.86-.64,1.3-1.66,1.3h-.77l-.35,1.76h-.18l.79-3.96ZM66.12,33.15c1,0,1.51-.38,1.51-1.13,0-.54-.37-.76-1.08-.76h-.75l-.37,1.88h.7Z"/>
    <path class="st0" d="M68.8,31.11h2.05l-.04.16h-1.87l-.32,1.62h1.58l-.04.16h-1.57l-.38,1.87h1.93l-.04.16h-2.1l.79-3.96Z"/>
    <path class="st0" d="M71.7,31.11h.96c.71,0,1.14.25,1.14.85,0,.77-.63,1.25-1.49,1.25h-.85l-.37,1.86h-.18l.79-3.96ZM72.23,33.06c.89,0,1.39-.41,1.39-1.08,0-.52-.36-.71-1.07-.71h-.71l-.35,1.79h.73ZM72.3,33.2l.17-.07.8,1.94h-.2l-.77-1.87Z"/>
  </g>
</svg>